<svg width="46" height="40" viewBox="0 0 46 40" fill="none" xmlns="http://www.w3.org/2000/svg">
<path d="M3 38L3.00093 17.65L21.9442 2.05821C22.6891 1.44508 23.7655 1.45115 24.5035 2.07265L43 17.65V38H3Z" fill="white"/>
<path d="M3.00093 17.65L2.36543 16.8779C2.13465 17.0678 2.00094 17.3511 2.00093 17.65L3.00093 17.65ZM3 38L2 38C1.99999 38.2652 2.10534 38.5195 2.29288 38.7071C2.48041 38.8946 2.73478 39 3 39V38ZM43 38V39C43.5523 39 44 38.5523 44 38H43ZM43 17.65H44C44 17.355 43.8698 17.0751 43.6442 16.8851L43 17.65ZM24.5035 2.07265L23.8593 2.83753V2.83753L24.5035 2.07265ZM21.9442 2.05821L21.3087 1.28611V1.28611L21.9442 2.05821ZM2.00093 17.65L2 38L4 38L4.00093 17.65L2.00093 17.65ZM3 39H43V37H3V39ZM44 38V17.65H42V38H44ZM43.6442 16.8851L25.1477 1.30776L23.8593 2.83753L42.3558 18.4149L43.6442 16.8851ZM21.3087 1.28611L2.36543 16.8779L3.63643 18.4221L22.5797 2.83032L21.3087 1.28611ZM26.9719 28.6769L43.5237 18.5019L42.4763 16.7981L25.9245 26.9731L26.9719 28.6769ZM2.48417 18.5061L19.3414 28.6811L20.375 26.9689L3.51769 16.7939L2.48417 18.5061ZM19.8582 28.825H26.4482V26.825H19.8582V28.825ZM19.3415 26.9689L2.48326 37.1439L3.51674 38.8561L20.3749 28.6811L19.3415 26.9689ZM25.9245 28.6769L42.4763 38.8519L43.5237 37.1481L26.9719 26.9731L25.9245 28.6769ZM25.1477 1.30776C24.0407 0.375524 22.4261 0.366419 21.3087 1.28611L22.5797 2.83032C22.9521 2.52375 23.4904 2.52679 23.8593 2.83753L25.1477 1.30776Z" fill="#45454D"/>
<path d="M11 9V21.0636C11 21.7197 11.3218 22.334 11.861 22.7076L18.9861 27.644C19.3207 27.8758 19.7181 28 20.1251 28H25.8749C26.2819 28 26.6793 27.8758 27.0139 27.644L34.139 22.7076C34.6783 22.334 35 21.7197 35 21.0636V9C35 7.89543 34.1046 7 33 7H13C11.8954 7 11 7.89543 11 9Z" fill="white" stroke="#45454D" stroke-width="2"/>
<path d="M11 9V21.0636C11 21.7197 11.3218 22.334 11.861 22.7076L18.9861 27.644C19.3207 27.8758 19.7181 28 20.1251 28H25.8749C26.2819 28 26.6793 27.8758 27.0139 27.644L34.139 22.7076C34.6783 22.334 35 21.7197 35 21.0636V9C35 7.89543 34.1046 7 33 7H13C11.8954 7 11 7.89543 11 9Z" fill="#CCA8F0" fill-opacity="0.2" stroke="#45454D" stroke-width="2"/>
<ellipse cx="23" cy="17.4222" rx="7" ry="7.23809" fill="#7800EF"/>
<path d="M22.0508 19.4922C22.0508 18.9727 22.1152 18.5586 22.2441 18.25C22.373 17.9414 22.627 17.6035 23.0059 17.2363C23.3887 16.8652 23.6309 16.6016 23.7324 16.4453C23.8887 16.207 23.9668 15.9492 23.9668 15.6719C23.9668 15.3047 23.875 15.0254 23.6914 14.834C23.5117 14.6387 23.2461 14.541 22.8945 14.541C22.5586 14.541 22.2871 14.6367 22.0801 14.8281C21.877 15.0156 21.7754 15.2715 21.7754 15.5957H20.3516C20.3594 14.9043 20.5938 14.3574 21.0547 13.9551C21.5195 13.5527 22.1328 13.3516 22.8945 13.3516C23.6797 13.3516 24.291 13.5508 24.7285 13.9492C25.1699 14.3477 25.3906 14.9043 25.3906 15.6191C25.3906 16.2559 25.0938 16.8828 24.5 17.5L23.7793 18.209C23.5215 18.502 23.3887 18.9297 23.3809 19.4922H22.0508ZM21.9512 21.3145C21.9512 21.084 22.0234 20.8984 22.168 20.7578C22.3125 20.6133 22.5078 20.541 22.7539 20.541C23.0039 20.541 23.2012 20.6152 23.3457 20.7637C23.4902 20.9082 23.5625 21.0918 23.5625 21.3145C23.5625 21.5293 23.4922 21.709 23.3516 21.8535C23.2109 21.998 23.0117 22.0703 22.7539 22.0703C22.4961 22.0703 22.2969 21.998 22.1562 21.8535C22.0195 21.709 21.9512 21.5293 21.9512 21.3145Z" fill="white"/>
</svg>
