<svg width="46" height="40" viewBox="0 0 46 40" fill="none" xmlns="http://www.w3.org/2000/svg">
<circle cx="20.5" cy="19.5" r="17.5" fill="#CCA8F0" fill-opacity="0.2" stroke="#45454D" stroke-width="2"/>
<path d="M32.9637 19.5C32.9637 24.4703 31.5236 28.9388 29.2331 32.1455C26.9415 35.3537 23.8434 37.25 20.4994 37.25C17.1555 37.25 14.0574 35.3537 11.7658 32.1455C9.47532 28.9388 8.03516 24.4703 8.03516 19.5C8.03516 14.5297 9.47532 10.0612 11.7658 6.85445C14.0574 3.64629 17.1555 1.75 20.4994 1.75C23.8434 1.75 26.9415 3.64629 29.2331 6.85445C31.5236 10.0612 32.9637 14.5297 32.9637 19.5Z" stroke="#45454D" stroke-width="1.5"/>
<path d="M26.6218 19.5C26.6218 24.5432 25.8612 29.0757 24.6561 32.3203C24.0525 33.9455 23.3517 35.2084 22.6115 36.0513C21.8701 36.8955 21.1547 37.25 20.5003 37.25C19.846 37.25 19.1306 36.8955 18.3892 36.0513C17.649 35.2084 16.9482 33.9455 16.3446 32.3203C15.1394 29.0757 14.3789 24.5432 14.3789 19.5C14.3789 14.4568 15.1394 9.92428 16.3446 6.67966C16.9482 5.05449 17.649 3.79163 18.3892 2.94871C19.1306 2.10446 19.846 1.75 20.5003 1.75C21.1547 1.75 21.8701 2.10446 22.6115 2.94871C23.3517 3.79163 24.0525 5.05449 24.6561 6.67966C25.8612 9.92428 26.6218 14.4568 26.6218 19.5Z" stroke="#45454D" stroke-width="1.5"/>
<path d="M20.5 13.3786C25.5432 13.3786 30.0757 14.1391 33.3203 15.3442C34.9455 15.9479 36.2084 16.6487 37.0513 17.3889C37.8955 18.1303 38.25 18.8456 38.25 19.5C38.25 20.1544 37.8955 20.8697 37.0513 21.6111C36.2084 22.3513 34.9455 23.0521 33.3203 23.6558C30.0757 24.8609 25.5432 25.6214 20.5 25.6214C15.4568 25.6214 10.9243 24.8609 7.67966 23.6558C6.05449 23.0521 4.79163 22.3513 3.94871 21.6111C3.10446 20.8697 2.75 20.1544 2.75 19.5C2.75 18.8456 3.10446 18.1303 3.94871 17.3889C4.79163 16.6487 6.05449 15.9479 7.67966 15.3442C10.9243 14.1391 15.4568 13.3786 20.5 13.3786Z" stroke="#45454D" stroke-width="1.5"/>
<path d="M23.8427 21.5714H24.5303L24.7764 20.9294C25.2334 19.7376 27.2923 17 31.7303 17C34.0248 17 35.4931 17.9787 36.4143 19.18C37.3679 20.4234 37.7416 21.9207 37.7416 22.8571V23.8571H38.7416C41.3868 23.8571 43 25.6791 43 28C43 28.7875 42.5962 29.5334 41.9479 30.1098C41.2876 30.6969 40.4928 31 39.9101 31H23.8427C23.0245 31 21.7784 30.7519 20.7668 30.0395C19.8072 29.3638 19 28.236 19 26.2857C19 24.3354 19.8072 23.2076 20.7668 22.5319C21.7784 21.8195 23.0245 21.5714 23.8427 21.5714Z" fill="white" stroke="#7800EF" stroke-width="2"/>
</svg>
