<svg width="1em" height="1em" viewBox="0 0 24 24" stroke="none" fill-rule="evenodd" version="1.1" xmlns="http://www.w3.org/2000/svg">
<path fill="#101043" d="M11.53,12.11 C13.5887096,12.0769617 15.2335113,10.3861373 15.2097386,8.32729984 C15.1859659,6.26846239 13.5025611,4.61606773 11.4436375,4.63057434 C9.38471395,4.64508094 7.7247598,6.32103197 7.72998763,8.38 C7.73791391,9.37897299 8.14305144,10.3337298 8.8559902,11.0335355 C9.56892896,11.7333411 10.5310525,12.1206591 11.53,12.11 Z"/>
<path fill="#101043" d="M18.42,19.36 L4.64,19.36 C4.64157923,18.4708967 4.81827584,17.5908116 5.16,16.77 C5.87233642,15.1037571 7.21242552,13.7852244 8.89,13.1 C9.72877522,12.7609984 10.6253116,12.5878038 11.53,12.5899589 C12.6853203,12.5860186 13.8232521,12.871361 14.84,13.42 L15.12,13.58 L15.12,13.71 L15.04,13.71 C14.8517677,13.7880274 14.6737807,13.8887747 14.51,14.01 L14.44,14.07 L13.52,13.7 L12.82,14.86 L13.6,15.48 L13.6,15.56 C13.5946575,15.6632643 13.5946575,15.7667357 13.6,15.87 C13.6,15.97 13.6,16.07 13.6,16.17 L13.6,16.25 L12.83,16.85 L13.5,18.02 L14.44,17.67 L14.5,17.72 C14.6662643,17.842939 14.8477801,17.9437811 15.04,18.02 L15.12,18.02 L15.25,19.02 L16.6,19.02 L16.76,18.02 L16.84,18.02 C17.0301246,17.9459031 17.2086153,17.8448707 17.37,17.72 L17.44,17.67 L18.28,18 C18.28,18.11 18.28,18.22 18.34,18.32 C18.3929834,18.6641384 18.4197271,19.0118069 18.42,19.36 L18.42,19.36 Z"/>
<path fill="#101043" d="M18.6,16.16 C18.6044386,16.0733902 18.6044386,15.9866098 18.6,15.9 C18.6046208,15.8133949 18.6046208,15.7266051 18.6,15.64 L19.24,15.14 C19.2975081,15.0937217 19.3394001,15.0308838 19.36,14.96 C19.3843811,14.8886932 19.3843811,14.8113068 19.36,14.74 L18.69,13.59 C18.6505619,13.5278604 18.5903019,13.4817793 18.52,13.46 C18.4497382,13.4299838 18.3702618,13.4299838 18.3,13.46 L17.53,13.76 C17.3614556,13.6576736 17.1840794,13.5706589 17,13.5 L16.88,12.7 C16.8677385,12.6253686 16.8286165,12.5577943 16.77,12.51 C16.7121677,12.4665618 16.6422981,12.4421075 16.57,12.44 L15.26,12.44 C15.1848089,12.4431142 15.1120214,12.4673766 15.05,12.51 C14.9975841,12.5612925 14.9626043,12.627754 14.95,12.7 L14.85,13.42 L14.85,13.5 C14.6914075,13.5708621 14.5405993,13.6579957 14.4,13.76 L13.63,13.46 C13.5597382,13.4299838 13.4802618,13.4299838 13.41,13.46 C13.3410316,13.4794345 13.2831412,13.5264705 13.25,13.59 L12.57,14.74 C12.544836,14.8111746 12.544836,14.8888254 12.57,14.96 C12.580741,15.032434 12.6204417,15.0973988 12.68,15.14 L13.32,15.64 C13.32,15.74 13.32,15.81 13.32,15.9 C13.3153792,15.9866051 13.3153792,16.0733949 13.32,16.16 L12.68,16.65 C12.6213835,16.6977943 12.5822615,16.7653686 12.57,16.84 C12.5404733,16.9068863 12.5404733,16.9831137 12.57,17.05 L13.25,18.2 C13.2831286,18.2695465 13.3453916,18.3208218 13.42,18.34 C13.4911746,18.365164 13.5688254,18.365164 13.64,18.34 L14.4,18.04 C14.5405993,18.1420043 14.6914075,18.2291379 14.85,18.3 L14.97,19.1 C14.9947378,19.2514487 15.1265574,19.3620071 15.28,19.3600679 L16.63,19.3600679 C16.7059715,19.3615403 16.780147,19.3368151 16.84,19.29 C16.8924159,19.2387075 16.9273957,19.172246 16.94,19.1 L17.06,18.3 C17.2206699,18.2332743 17.3719468,18.1458699 17.51,18.04 L18.28,18.35 L18.37,18.35 C18.4250658,18.369049 18.4849342,18.369049 18.54,18.35 C18.5895001,18.3207862 18.6307862,18.2795001 18.66,18.23 L19.34,17.09 C19.3643811,17.0186932 19.3643811,16.9413068 19.34,16.87 C19.3277385,16.7953686 19.2886165,16.7277943 19.23,16.68 L18.6,16.16 Z M18.36,18.06 L18.29,18.06 L17.45,17.73 L17.38,17.78 C17.2137357,17.902939 17.0322199,18.0037811 16.84,18.08 L16.76,18.08 L16.61,19.08 L15.24,19.08 L15.1,18.08 L15.03,18.08 C14.8355496,18.0085694 14.6533771,17.9073625 14.49,17.78 L14.42,17.73 L13.49,18.08 L12.81,16.91 L13.59,16.31 L13.59,16.2 C13.59,16.1 13.59,16 13.59,15.9 C13.5846575,15.7967357 13.5846575,15.6932643 13.59,15.59 L13.59,15.51 L12.81,14.89 L13.51,13.73 L14.42,14.1 L14.49,14.04 C14.6586408,13.920797 14.8396966,13.8202104 15.03,13.74 L15.11,13.74 L15.11,13.61 L15.24,12.76 L16.61,12.76 L16.75,13.76 L16.83,13.76 C17.0182323,13.8380274 17.1962193,13.9387747 17.36,14.06 L17.43,14.12 L18.37,13.76 L19.04,14.93 L18.26,15.53 L18.26,15.61 C18.2653425,15.7132643 18.2653425,15.8167357 18.26,15.92 C18.26,16.02 18.26,16.12 18.26,16.22 L18.26,16.3 L19.04,16.93 L18.36,18.06 Z"/>
<path fill="#101043" d="M15.93,17.07 C16.5582734,17.0644886 17.0636468,16.5516786 17.0600004,15.9233918 C17.0563144,15.2951049 16.5449908,14.7882276 15.9166959,14.7900438 C15.288401,14.7918697 14.7800242,15.3017025 14.78,15.93 C14.7854891,16.5612188 15.2987574,17.0700239 15.93,17.07 Z"/>
</svg>