<svg width="24px" height="24px" viewBox="0 0 24 24" stroke="none" fill-rule="evenodd" version="1.1" xmlns="http://www.w3.org/2000/svg">
<path fill="#7800EF" d="M15.62,8.48 C15.5287144,8.31494591 15.3476,8.22045142 15.16,8.24 C14.9705005,8.25802144 14.8076726,8.38208082 14.74,8.56 L13.18,12.88 L12.08,9 L12,9.05 C11.7488735,9.31020364 11.5336361,9.6027919 11.36,9.92 L12.67,14.58 C12.7230253,14.7811994 12.9020294,14.923589 13.11,14.9300224 L13.11,14.9300224 C13.3134516,14.9319789 13.4950752,14.8028244 13.56,14.61 L15.28,9.87 L16.49,12 C16.5769535,12.150746 16.7360332,12.2454363 16.91,12.25 L18.58,12.25 C18.58,12.1 18.58,11.95 18.58,11.8 C18.5899567,11.6268097 18.5899567,11.4531903 18.58,11.28 L17.19,11.28 L15.62,8.48 Z"/>
<path fill="#101043" d="M21.17,17.42 L19.37,15.62 C19.221431,15.4740341 18.9968237,15.4379365 18.81,15.53 L18.48,15.2 C18.4277096,15.1348644 18.3526643,15.0919814 18.27,15.08 C19.0011745,14.3023889 19.4516757,13.3028394 19.55,12.24 L20.39,12.24 C20.6661424,12.24 20.89,12.0161424 20.89,11.74 C20.89,11.4638576 20.6661424,11.24 20.39,11.24 L19.54,11.24 C19.3289716,9.51832575 18.2109541,8.04201247 16.6109257,7.37223314 C15.0108973,6.70245381 13.1745835,6.94207026 11.8,8 L11.15,5.69 C11.0902879,5.48910137 10.9094155,5.34842279 10.7,5.34 C10.4892606,5.32905979 10.297064,5.45991702 10.23,5.66 L8,12 L6.7,9.5 C6.62725901,9.35467415 6.48592412,9.25602417 6.32442871,9.23785593 C6.1629333,9.2196877 6.00321239,9.28446891 5.9,9.41 L4.9,10.64 L3.17,10.64 C2.89385763,10.64 2.67,10.8638576 2.67,11.14 C2.67,11.4161424 2.89385763,11.64 3.17,11.64 L5.08,11.64 C5.22443992,11.6400415 5.3608775,11.5736665 5.45,11.46 L6.16,10.62 L7.64,13.45 C7.72549052,13.6228136 7.90785225,13.7258876 8.1,13.71 C8.29234922,13.6994843 8.45880751,13.5726589 8.52,13.39 L10.63,7.39 L11,8.71 C9.41610622,10.6322668 9.54577699,13.4418002 11.3,15.21 C13.0136282,16.9274774 15.7354014,17.1072172 17.66,15.63 C17.6726858,15.7238877 17.7146804,15.8113765 17.78,15.88 L18.12,16.22 C18.0263443,16.4032644 18.0628158,16.6261458 18.21,16.77 L20,18.57 C20.0900649,18.6603782 20.2124073,18.7111785 20.34,18.7111785 C20.4675927,18.7111785 20.5899351,18.6603782 20.68,18.57 L21.16,18.1 C21.3407049,17.9108497 21.3450647,17.6143822 21.17,17.42 Z M17.47,14.53 C16.1052816,15.8885533 13.9493418,16.0370568 12.4112388,14.8784531 C10.8731358,13.7198494 10.4208577,11.6066588 11.35,9.92 C11.5243511,9.60367627 11.7432551,9.3140494 12,9.06 L12.08,9 C13.6055686,7.56796589 15.9930916,7.60783177 17.47,9.09 C18.0719078,9.68285016 18.4559879,10.4615813 18.56,11.3 C18.5750505,11.4730066 18.5750505,11.6469934 18.56,11.82 C18.56,11.97 18.56,12.12 18.56,12.27 C18.4592293,13.1239149 18.0755081,13.9195204 17.47,14.53 L17.47,14.53 Z"/>
</svg>