<svg width="1em" height="1em" viewBox="0 0 24 24" stroke="none" fill-rule="evenodd" version="1.1" xmlns="http://www.w3.org/2000/svg">
<path fill="#101043" d="M16.59,6 L7.41,6 C6.6312785,6 6,6.6312785 6,7.41 L6,16.59 C6,17.3687215 6.6312785,18 7.41,18 L16.59,18 C17.3687215,18 18,17.3687215 18,16.59 L18,16.24 L16.59,17.65 L15.88,16.94 L7.41,16.94 C7.21670034,16.94 7.06,16.7832997 7.06,16.59 L7.06,7.41 C7.06,7.21670034 7.21670034,7.06 7.41,7.06 L16.59,7.06 C16.6828258,7.06 16.7718496,7.09687489 16.8374874,7.16251263 C16.9031251,7.22815036 16.94,7.31717423 16.94,7.41 L16.94,16.3 L18,15.24 L18,7.41 C18,6.6312785 17.3687215,6 16.59,6 Z"/>
<rect fill="#101043" x="8.82" y="8.82" width="6.35" height="1.06"/>
<rect fill="#101043" x="8.82" y="11.29" width="6.35" height="1.06"/>
<rect fill="#101043" x="8.82" y="13.76" width="4.24" height="1.06"/>
<path fill="#7800EF" d="M18,12.42 C17.7658386,12.3759287 17.5282594,12.3525054 17.29,12.35 L16.94,12.35 C15.138142,12.5341848 13.7659604,14.0487626 13.7599966,15.86 C13.7594893,16.2201609 13.8168884,16.5780615 13.93,16.92 C14.0424708,17.3099815 14.2254973,17.6760344 14.47,18 C15.4141987,19.2552927 17.074253,19.7356885 18.5429162,19.1786432 C20.0115793,18.621598 20.9354912,17.1611367 20.8097189,15.5954252 C20.6839467,14.0297138 19.538751,12.7354622 18,12.42 Z M16.59,17.65 L14.82,15.88 L15.32,15.38 L16.59,16.65 L19.27,14 L19.76,14.5 L16.59,17.65 Z"/>
</svg>