<svg width="1em" height="1em" viewBox="0 0 24 24" stroke="none" fill-rule="evenodd" version="1.1" xmlns="http://www.w3.org/2000/svg">
<path fill="#101043" d="M12,18.43 C12.7267489,18.424556 13.314556,17.8367489 13.32,17.11 L10.68,17.11 C10.685444,17.8367489 11.2732511,18.424556 12,18.43 L12,18.43 Z M16,14.43 L16,11.18 C16.1476583,9.24304912 14.8823283,7.48002271 13,7 L13,6.56 C13,6.00771525 12.5522847,5.56 12,5.56 C11.4477153,5.56 11,6.00771525 11,6.56 L11,7 C9.12163944,7.47939071 7.85740128,9.23668175 8,11.17 L8,14.46 L7.15,15.31 C6.95972296,15.4975809 6.90131634,15.7813791 7.00205776,16.0288526 C7.10279917,16.2763261 7.34281072,16.4386443 7.61,16.44 L16.29,16.44 C16.5543973,16.433316 16.7901208,16.2717184 16.8916911,16.0275175 C16.9932613,15.7833166 16.941669,15.502216 16.76,15.31 L16,14.43 Z"/>
</svg>