<svg width="1em" height="1em" viewBox="0 0 24 24" stroke="none" fill-rule="evenodd" version="1.1" xmlns="http://www.w3.org/2000/svg">
<path fill="#101043" d="M10.6,8.93a16.38,16.38,0,0,0-2.42,4l-1.53-.65a.68.68,0,0,1-.21-1.1l2-2A1.35,1.35,0,0,1,9.7,8.75Zm1,6.87a.66.66,0,0,0,.76.14,13.6,13.6,0,0,0,3.56-2.32c3.1-3.1,3.13-5.63,3-6.71a.67.67,0,0,0-.54-.54c-1.08-.18-3.61-.15-6.71,3A14,14,0,0,0,9.3,12.88a.67.67,0,0,0,.14.76Zm4.72-1.15a16.37,16.37,0,0,1-4,2.42L13,18.6a.68.68,0,0,0,1.1.21l2-2a1.35,1.35,0,0,0,.37-1.22Zm-5.89,1.76a2,2,0,0,1-.56,1.83,7.87,7.87,0,0,1-3.18,1.11.68.68,0,0,1-.8-.79A8.12,8.12,0,0,1,7,15.38a2,2,0,0,1,3.43,1Zm2.74-5.69a1.36,1.36,0,1,1,1.36,1.36A1.36,1.36,0,0,1,13.17,10.72Z"/>
<path fill="#7800EF" d="M8,6.79A2.61,2.61,0,0,1,6.87,4.63,2.6,2.6,0,0,1,5.74,6.79,2.3,2.3,0,0,1,5.07,7a2.3,2.3,0,0,1,.67.25A2.57,2.57,0,0,1,6.87,9.44,2.59,2.59,0,0,1,8,7.29,2.3,2.3,0,0,1,8.68,7,2.3,2.3,0,0,1,8,6.79Z"/>
<path fill="#7800EF" d="M10.33,6.15A1.37,1.37,0,0,1,9.73,5a1.35,1.35,0,0,1-.6,1.14,1.07,1.07,0,0,1-.35.13,1.07,1.07,0,0,1,.35.13,1.35,1.35,0,0,1,.6,1.14,1.37,1.37,0,0,1,.6-1.14,1.14,1.14,0,0,1,.36-.13A1.14,1.14,0,0,1,10.33,6.15Z"/>
</svg>