<svg width="24px" height="24px" viewBox="0 0 24 24" stroke="none" fill-rule="evenodd" version="1.1" xmlns="http://www.w3.org/2000/svg">
<path fill="#101043" d="M12.63,4.99986132 C12.4060387,4.99740746 12.1831411,5.03117982 11.97,5.1 C11.7568589,5.03117982 11.5339613,4.99740746 11.31,4.99986132 C9.23,4.99986132 7.61,8.07 7.61,12 C7.61,15.93 9.23,19 11.31,19 C11.5344946,18.9991908 11.7573778,18.9620436 11.97,18.89 C12.1826222,18.9620436 12.4055054,18.9991908 12.63,19 C14.71,19 16.34,15.92 16.34,12 C16.34,8.08 14.71,4.99986132 12.63,4.99986132 Z M11.97,18.15 C11.7647638,18.2521018 11.5392081,18.306782 11.31,18.31 C11.1870615,18.3239571 11.0629385,18.3239571 10.94,18.31 C9.48,17.91 8.3,15.21 8.3,12.05 C8.3,8.89 9.48,6.13 10.97,5.73 C11.0910279,5.69930284 11.2151654,5.68252749 11.34,5.68 C11.5692081,5.68321801 11.7947638,5.73789818 12,5.84 C13.33,6.49 14.35,9.04 14.35,12 C14.35,14.96 13.3,17.5 11.97,18.15 Z M12.97,18.26 C14.17,17.12 14.97,14.77 14.97,12 C14.97,9.23 14.15,6.88 12.97,5.73 C14.43,6.13 15.61,8.83 15.61,12 C15.61,15.17 14.46,17.86 12.97,18.26 L12.97,18.26 Z"/>
<path fill="#101043" d="M21.97,11.78 C21.8060965,10.1417327 20.7353138,8.73463912 19.2,8.14 L19.25,7.14 L16.89,8.36 L19.06,9.77 L19.06,9.24 C20.0741608,9.77195072 20.7511927,10.779976 20.86,11.92 C21.29,15.11 18.1,15.76 17.96,15.78 C17.7210523,15.8465037 17.5645965,16.0752736 17.5892764,16.3220724 C17.6139562,16.5688712 17.8126149,16.7621295 18.06,16.78 L18.15,16.78 C19.3218481,16.6284251 20.3845802,16.0149766 21.1019312,15.0760355 C21.8192822,14.1370944 22.1317978,12.9504804 21.97,11.78 L21.97,11.78 Z"/>
<path fill="#101043" d="M5.15,14.87 C3.91189331,14.3757908 3.07837374,13.2018196 3.02,11.87 C3.02,11.76 3.02,11.66 3.02,11.56 C3.02,8.63 6.02,8.23 6.19,8.21 C6.39061227,8.21433147 6.57512081,8.10062398 6.66142568,7.91947345 C6.74773055,7.73832292 6.71979048,7.52339934 6.59003785,7.37033629 C6.46028521,7.21727324 6.2528368,7.15452015 6.06,7.21 C3.63805785,7.38088937 1.80982219,9.47732585 1.97,11.9 C2.05833565,13.7212172 3.2463655,15.305257 4.97,15.9 L4.87,16.81 L7.25,15.81 L5.22,14.28 L5.15,14.87 Z"/>
<path fill="#7800EF" d="M9.77,13.82 L10.08,13.14 C10.4112021,13.3701466 10.7910658,13.5207232 11.19,13.58 C11.68,13.58 11.93,13.36 11.93,12.94 C11.93,12.52 11.65,12.42 11.23,12.25 C10.41,11.92 9.92,11.56 9.92,10.81 C9.94925989,10.1879082 10.4220188,9.67715971 11.04,9.6 L11.04,9 L11.65,9 L11.65,9.6 C12.0214503,9.64621209 12.3809719,9.76153033 12.71,9.94 L12.42,10.58 C12.1153543,10.3986405 11.7733382,10.2891954 11.42,10.26 C11.09,10.26 10.78,10.39 10.78,10.72 C10.78,11.05 11.07,11.32 11.62,11.54 C12.35,11.84 12.77,12.16 12.77,12.88 C12.7771095,13.5474302 12.3055218,14.124283 11.65,14.25 L11.65,15 L11.04,15 L11.04,14.27 C10.5880227,14.2182342 10.1537375,14.0643537 9.77,13.82 Z"/>
</svg>