<svg width="24px" height="24px" viewBox="0 0 24 24" stroke="none" fill-rule="evenodd" version="1.1" xmlns="http://www.w3.org/2000/svg">
<path fill="#101043" d="M15.5,19.62 L5.18,19.62 C4.68846657,19.62 4.29,19.2215334 4.29,18.73 L4.29,8.62 C4.30273706,8.38144607 4.4108426,8.15802796 4.59,8 L8.4,4.6 C8.56728672,4.45732776 8.78013709,4.37928262 9,4.3799951 L18.83,4.3799951 C19.3215334,4.3799951 19.7200137,4.77846657 19.7200137,5.27 L19.7200137,15.91 C19.7214475,16.1711726 19.6081031,16.419799 19.41,16.59 L16.09,19.41 C15.9257376,19.549979 15.7157638,19.6247154 15.5,19.62 L15.5,19.62 Z M5.35,18.56 L15.44,18.56 L18.65,15.83 L18.65,5.44 L9.06,5.44 L5.35,8.7 L5.35,18.56 Z"/>
<rect fill="#CCA8F0" x="7.13" y="8.46" width="1.42" height="7.44"/>
<rect fill="#A860F0" x="9.96" y="6.68" width="1.42" height="9.22"/>
<rect fill="#9331F5" x="12.8" y="10.23" width="1.42" height="5.67"/>
<rect fill="#7800EF" x="15.63" y="8.46" width="1.42" height="7.44"/>
</svg>