<svg width="1em" height="1em" viewBox="0 0 24 24" version="1.1" xmlns="http://www.w3.org/2000/svg">
<path fill="#101043" fill-rule="evenodd" stroke="none" d="M17.4,12.69 C17.4155157,12.4602617 17.4155157,12.2297383 17.4,12 C17.4039656,11.7689685 17.3872321,11.5380461 17.35,11.31 L18.88,10.15 C19.0325811,10.0552422 19.085139,9.85814983 19,9.7 L17.56,7.26 C17.472777,7.10555469 17.2860555,7.03765598 17.12,7.1 L15.31,7.8 C14.9336053,7.52016741 14.5237748,7.28837802 14.09,7.11 L13.81,5.24 C13.7766888,5.06706792 13.6261041,4.94158068 13.45,4.94 L10.55,4.94 C10.3738959,4.94158068 10.2233112,5.06706792 10.19,5.24 L9.92,7.11 C9.48706502,7.29010129 9.07743885,7.52177511 8.7,7.8 L6.89,7.1 C6.72105311,7.03642042 6.53088665,7.10403516 6.44,7.26 L5,9.7 C4.90372122,9.84972315 4.94354146,10.0488243 5.09,10.15 L6.63,11.31 C6.55005076,11.7665262 6.55005076,12.2334738 6.63,12.69 L5.08,13.85 C4.94145238,13.9570311 4.90683127,14.1517749 5,14.3 L6.45,16.74 C6.53722303,16.8944453 6.72394448,16.962344 6.89,16.9 L8.7,16.2 C9.07639473,16.4798326 9.48622523,16.711622 9.92,16.89 L10.2,18.76 C10.2333112,18.9329321 10.3838959,19.0584193 10.56,19.06 L13.46,19.06 C13.6361041,19.0584193 13.7866888,18.9329321 13.82,18.76 L14.09,16.89 C14.5248661,16.7138749 14.9349737,16.4819288 15.31,16.2 L17.12,16.9 C17.2889469,16.9635796 17.4791134,16.8959648 17.57,16.74 L19,14.3 C19.0910188,14.1493195 19.0519714,13.9540825 18.91,13.85 L17.4,12.69 Z M12,14.69 C10.5514179,14.6515492 9.40234961,13.4566743 9.4205246,12.0076959 C9.43869959,10.5587175 10.617377,9.39304023 12.0664678,9.390933 C13.5155587,9.38883149 14.6976167,10.5510805 14.72,12 C14.6980579,13.4817611 13.4818296,14.6666895 12,14.65 L12,14.69 Z"/>
</svg>