<svg width="1em" height="1em" viewBox="0 0 24 24" stroke="none" fill-rule="evenodd" version="1.1" xmlns="http://www.w3.org/2000/svg">
<polygon fill="#7800EF" points="8.74 16.72 9.93 16.72 9.93 15.13 11.51 15.13 11.51 13.94 9.93 13.94 9.93 12.35 8.74 12.35 8.74 13.94 7.15 13.94 7.15 15.13 8.74 15.13"/>
<rect fill="#101043" x="7.35" y="8.55" width="3.97" height="1.19"/>
<rect fill="#101043" x="12.71" y="14.93" width="3.97" height="1.19"/>
<rect fill="#101043" x="12.71" y="12.95" width="3.97" height="1.19"/>
<polygon fill="#101043" points="13.57 11.12 14.69 10 15.81 11.12 16.65 10.28 15.53 9.15 16.65 8.03 15.81 7.19 14.69 8.31 13.57 7.19 12.73 8.03 13.85 9.15 12.73 10.28"/>
<path fill="#101043" d="M17.82,4.81 L6.18,4.81 C5.39964436,4.81 4.76549546,5.43966371 4.76,6.22 L4.76,17.87 C4.76549546,18.6503363 5.39964436,19.28 6.18,19.28 L17.82,19.28 C18.6003556,19.28 19.2345045,18.6503363 19.24,17.87 L19.24,6.22 C19.2345045,5.43966371 18.6003556,4.81 17.82,4.81 Z M18.18,17.87 C18.1745839,18.0649066 18.0149818,18.22 17.82,18.22 L6.18,18.22 C5.98501815,18.22 5.82541615,18.0649066 5.81999997,17.87 L5.81999997,6.22 C5.81999997,6.12541535 5.85820582,6.03484181 5.92602253,5.96890889 C5.99383925,5.90297597 6.08545396,5.86729757 6.18,5.87 L17.82,5.87 C17.914546,5.86729757 18.0061608,5.90297597 18.0739775,5.96890889 C18.1417942,6.03484181 18.18,6.12541535 18.18,6.22 L18.18,17.87 Z"/>
</svg>