<svg width="18" height="18" viewBox="0 0 18 18" fill="none" xmlns="http://www.w3.org/2000/svg">
<path fill="currentColor" d="M8.49189,9.12279 C10.7734,9.12279 12.6229,7.30444 12.6229,5.0614 C12.6229,2.81835 10.7734,1 8.49189,1 C6.21037,1 4.36084,2.81835 4.36084,5.0614 C4.36084,7.30444 6.21037,9.12279 8.49189,9.12279 Z"/>
<path fill="currentColor" d="M15.98,17.0001 L1,17.0001 C1,16.033 1.19384,15.0754 1.57039,14.1819 C1.94694,13.2885 2.49888,12.4768 3.19461,11.7931 C3.89035,11.1095 4.71629,10.5673 5.62522,10.1975 C6.53416,9.82776 7.50829,9.6377 8.49196,9.63818503 C9.74907,9.63675 10.986,9.94848 12.0874,10.5443 C12.1896,10.5982 12.2899,10.6559 12.3902,10.7154 L12.3675,10.8531 L12.2842,10.8866 C12.0763,10.9735 11.8805,11.086 11.7014,11.2214 L11.6276,11.2791 L10.6303,10.881 L9.87336,12.1368 L10.7192,12.814 L10.7098,12.9033 C10.6954,13.0132 10.6872,13.1237 10.6852,13.2345 C10.6872,13.3458 10.6954,13.457 10.7098,13.5675 L10.7192,13.6568 L9.8752,14.3061 L10.6076,15.5805 L11.6257,15.1936 L11.6976,15.2475 C11.8763,15.3841 12.073,15.496 12.2823,15.5805 L12.3656,15.6159 L12.5151,16.6596 L14.0006,16.6745 L14.1709,15.6159 L14.2561,15.5805 C14.4632,15.4955 14.6584,15.3849 14.837,15.2512 L14.9127,15.1936 L15.8267,15.5563 C15.8532,15.6698 15.8722,15.7889 15.8892,15.9061 C15.9474,16.268 15.9777,16.6337 15.98,17.0001 Z"/>
<path fill="currentColor" d="M16.1692,13.5172 C16.1787,13.4093 16.1843,13.32 16.1843,13.2344 C16.1843,13.1489 16.1844,13.0596 16.1692,12.9535 L16.8694,12.414 C16.9345,12.3636 16.9789,12.2919 16.9945,12.2119 C17.0102,12.132 16.996,12.0491 16.9546,11.9786 L16.2241,10.7321 C16.1828,10.6622 16.1172,10.6092 16.0393,10.5829 C15.9615,10.5566 15.8766,10.5587 15.8002,10.5889 L14.9714,10.9163 C14.8164,10.8066 14.651,10.7119 14.4775,10.6335 L14.3506,9.7591 C14.336,9.68027 14.2938,9.60895 14.2312,9.55761 C14.1686,9.50628 14.0896,9.47814884 14.0081,9.47814884 L12.5453,9.47814884 C12.4627,9.47726 12.3825,9.50573 12.3195,9.55838 C12.2566,9.61104 12.2152,9.68434 12.2028,9.76469 L12.0931,10.5442 L12.0798,10.6335 C11.9046,10.7099 11.7384,10.8047 11.584,10.9163 L10.7532,10.5851 C10.6769,10.5567 10.5927,10.5559 10.5157,10.5828 C10.4388,10.6097 10.3741,10.6626 10.3331,10.7321 L9.60267,11.9786 C9.55984,12.0486 9.54463,12.1316 9.55998,12.2119 C9.57533,12.2921 9.62016,12.3641 9.68592,12.414 L10.3842,12.9535 C10.3842,13.0596 10.3691,13.1396 10.3691,13.2344 C10.3691,13.3293 10.3691,13.4093 10.3842,13.5172 L9.68592,14.0586 C9.62009,14.1076 9.57518,14.1789 9.5598,14.2586 C9.54441,14.3384 9.55966,14.421 9.60267,14.4903 L10.3331,15.7405 C10.3745,15.8104 10.4401,15.8634 10.5179,15.8897 C10.5958,15.916 10.6807,15.9139 10.757,15.8837 L11.584,15.5563 C11.7389,15.6672 11.905,15.7619 12.0798,15.8391 L12.2028,16.7098 C12.2167,16.7891 12.2587,16.8611 12.3214,16.9129 C12.3841,16.9646 12.4634,16.9929 12.5453,16.9926024 L14.0081,16.9926024 C14.0907,16.9923 14.1706,16.9631 14.2333,16.9103 C14.296,16.8574 14.3376,16.7844 14.3506,16.7042 L14.4737,15.8391 C14.6485,15.7632 14.8141,15.6683 14.9676,15.5563 L15.8002,15.8856 C15.8306,15.899 15.8635,15.9059 15.8967,15.906 C15.961,15.9108 16.0254,15.8978 16.0825,15.8686 C16.1397,15.8393 16.1874,15.795 16.2203,15.7405 L16.9508,14.494 C16.9932,14.4239 17.0081,14.341 16.9928,14.2608 C16.9775,14.1807 16.9329,14.1088 16.8675,14.0586 L16.1692,13.5172 Z M15.9156,15.5879 L15.8343,15.5563 L14.9203,15.1935 L14.8446,15.2512 C14.666,15.3848 14.4707,15.4954 14.2636,15.5805 L14.1785,15.6158 L14.0081,16.6744 L12.5226,16.6595 L12.3731,15.6158 L12.2899,15.5805 C12.0805,15.496 11.8838,15.384 11.7051,15.2475 L11.6332,15.1935 L10.6151,15.5805 L9.88274,14.3061 L10.7268,13.6568 L10.7173,13.5675 C10.7029,13.457 10.6947,13.3458 10.6927,13.2344 C10.6948,13.1237 10.703,13.0131 10.7173,12.9033 L10.7268,12.814 L9.88089,12.1368 L10.6378,10.881 L11.6351,11.2791 L11.7089,11.2214 C11.888,11.086 12.0839,10.9735 12.2918,10.8865 L12.375,10.853 L12.3977,10.7154 L12.5472,9.7963 L14.01,9.7963 C14.0147,9.79589 14.0194,9.79692 14.0235,9.79926 C14.0276,9.80159 14.0308,9.80512 14.0327,9.80934 L14.1841,10.853 L14.2674,10.8865 C14.475,10.9741 14.6707,11.0866 14.8503,11.2214 L14.924,11.2791 L15.9441,10.8902 L16.6726,12.1628 L15.8267,12.814 L15.8362,12.9033 C15.852,13.013 15.8608,13.1236 15.8627,13.2344 C15.8609,13.3459 15.852,13.4571 15.8362,13.5675 L15.8267,13.6568 L16.6745,14.3321 L15.9156,15.5879 Z"/>
<path fill="currentColor" d="M13.2758,14.507 C13.9708,14.507 14.5342,13.9531 14.5342,13.2698 C14.5342,12.5865 13.9708,12.0326 13.2758,12.0326 C12.5808,12.0326 12.0173,12.5865 12.0173,13.2698 C12.0173,13.9531 12.5808,14.507 13.2758,14.507 Z"/>
</svg>
