<svg width="28" height="36" viewBox="0 0 28 36" fill="none" xmlns="http://www.w3.org/2000/svg">
<path d="M14 35.1467C14.9314 35.1397 15.8227 34.7666 16.4813 34.108C17.1399 33.4493 17.513 32.5581 17.52 31.6267H10.48C10.487 32.5581 10.86 33.4493 11.5187 34.108C12.1773 34.7666 13.0686 35.1397 14 35.1467ZM24.6666 24.48V15.8133C24.8574 13.3111 24.1598 10.8218 22.6966 8.78306C21.2334 6.74434 19.0983 5.28676 16.6666 4.66666V3.49333C16.6666 2.78608 16.3857 2.10781 15.8856 1.60771C15.3855 1.10761 14.7072 0.82666 14 0.82666C13.2927 0.82666 12.6145 1.10761 12.1144 1.60771C11.6143 2.10781 11.3333 2.78608 11.3333 3.49333V4.66666C8.9065 5.28602 6.77503 6.73961 5.31235 8.77273C3.84967 10.8059 3.14907 13.2888 3.33331 15.7867V24.56L1.06664 26.8267C0.81853 27.0713 0.648597 27.384 0.578366 27.7252C0.508135 28.0665 0.540766 28.4209 0.672127 28.7436C0.803488 29.0663 1.02767 29.3427 1.31627 29.5379C1.60487 29.7331 1.94491 29.8382 2.29331 29.84H25.44C25.7851 29.8313 26.1203 29.7227 26.4051 29.5275C26.6898 29.3323 26.9119 29.0588 27.0445 28.74C27.1771 28.4213 27.2145 28.0709 27.1521 27.7314C27.0898 27.3918 26.9304 27.0776 26.6933 26.8267L24.6666 24.48Z" fill="#101043"/>
</svg>
