<svg width="18" height="18" viewBox="0 0 18 18" fill="none" xmlns="http://www.w3.org/2000/svg">
<path fill="currentColor" fill-rule="evenodd" clip-rule="evenodd" d="M11.7675 3.75346C10.669 3.04207 9.37946 2.71551 8.08998 2.81873C6.80039 2.92196 5.57394 3.45005 4.59389 4.32956C3.88448 4.9662 3.3315 5.76263 2.97533 6.65294L3.5625 6.73568L1.38542 9.92833L0 6.23369L0.950687 6.36765C1.4029 5.013 2.19527 3.79485 3.25809 2.84106C4.56019 1.67254 6.19852 0.96374 7.93039 0.825104C9.66237 0.68646 11.3896 1.12597 12.8547 2.07472C14.3192 3.02316 15.4419 4.42842 16.0608 6.07773L14.1883 6.78041C13.7173 5.52539 12.8665 4.46514 11.7675 3.75346ZM17.1 11.406L16.2645 11.3099C15.8318 12.8266 14.9796 14.1905 13.8016 15.2316C12.4828 16.3972 10.8272 17.0945 9.08312 17.2135C7.33897 17.3325 5.60662 16.8662 4.14717 15.8887C2.6882 14.9114 1.58245 13.4775 0.990956 11.8062L2.87635 11.1389C3.32659 12.4111 4.16501 13.4934 5.26018 14.227C6.35488 14.9602 7.64851 15.3067 8.94698 15.2181C10.2456 15.1295 11.4847 14.6101 12.4772 13.733C13.2826 13.0211 13.8904 12.1045 14.2421 11.0774L13.5375 10.9964L15.7111 8.4503L17.1 11.406ZM6.89131 12.1778C7.13408 12.3306 7.39709 12.4466 7.67218 12.5222C7.833 12.5566 7.99592 12.5784 8.15956 12.5878V13.4265H9.14482V12.5515C9.39163 12.5141 9.63423 12.4484 9.86804 12.3554C10.2002 12.2193 10.4799 11.9755 10.6646 11.6611C10.8516 11.3045 10.942 10.9031 10.9267 10.4985C10.9463 10.1068 10.8591 9.71721 10.6751 9.37354C10.5191 9.11619 10.2957 8.90914 10.0305 8.77609C9.72498 8.63434 9.40509 8.52783 9.07669 8.45853H9.05573H9.0138H8.96664H8.92995C8.67212 8.40718 8.41817 8.33703 8.17005 8.24861C7.99134 8.18952 7.83063 8.08381 7.70362 7.94182C7.57412 7.77618 7.50879 7.56724 7.5202 7.35513C7.51 7.20443 7.5335 7.05333 7.58891 6.91339C7.64432 6.77346 7.73017 6.64839 7.83988 6.54777C8.11884 6.3447 8.45792 6.24765 8.79893 6.27327C9.02938 6.27609 9.25779 6.31791 9.47499 6.39707C9.72187 6.48967 9.95613 6.61448 10.172 6.76845L10.7642 5.9288C10.5622 5.7874 10.3482 5.66491 10.1248 5.56279C9.9122 5.47008 9.69096 5.39975 9.46451 5.35288C9.35887 5.32837 9.25217 5.3094 9.14482 5.29602V4.44864H8.15956V5.31708C7.93534 5.35729 7.71556 5.42332 7.50447 5.51435C7.17851 5.67746 6.91745 5.95128 6.76553 6.28942C6.58178 6.66244 6.49341 7.07733 6.50874 7.49508C6.48473 7.89985 6.58361 8.3023 6.79174 8.64691C6.9642 8.89162 7.20296 9.07881 7.47827 9.18515C7.81847 9.31154 8.16936 9.40524 8.52642 9.46504H8.57882H8.63123H8.68364C8.91093 9.50285 9.13392 9.56416 9.34921 9.64804C9.51725 9.71039 9.66574 9.81826 9.77895 9.96022C9.89303 10.1247 9.95022 10.3236 9.94141 10.5254C9.95238 10.6821 9.92726 10.8393 9.86808 10.9843C9.8089 11.1292 9.71732 11.2578 9.60077 11.3596C9.29753 11.575 8.93024 11.6741 8.5631 11.6395C8.24369 11.6409 7.9282 11.5672 7.64073 11.4242C7.34156 11.2662 7.07886 11.0441 6.87035 10.773L6.20477 11.5965C6.40941 11.8186 6.64001 12.0138 6.89131 12.1778Z"/>
</svg>
