<svg width="18" height="18" viewBox="0 0 18 18" fill="none" xmlns="http://www.w3.org/2000/svg">
<path fill="currentColor" d="M14.3387 9.64274C14.3774 9.4187 14.3976 9.19206 14.3992 8.96494C14.3971 8.73785 14.3769 8.51125 14.3387 8.28715L15.864 7.11854C15.9322 7.0675 15.9786 6.99402 15.9942 6.91211C16.0098 6.8302 15.9937 6.7456 15.9488 6.67446L14.5082 4.26712C14.467 4.19503 14.4001 4.13985 14.3199 4.1119C14.2397 4.08394 14.1518 4.08512 14.0724 4.1152L12.2807 4.81637C11.9094 4.53747 11.5026 4.30575 11.0701 4.12689L10.7917 2.29217C10.7799 2.21061 10.7378 2.13598 10.6732 2.08221C10.6086 2.02845 10.5259 1.99923 10.4406 2.00002H7.55941C7.47412 1.99923 7.39142 2.02845 7.32681 2.08221C7.26221 2.13598 7.2201 2.21061 7.20833 2.29217L6.92988 4.19701C6.49745 4.37587 6.09059 4.60759 5.7193 4.88649L3.92765 4.18532C3.84828 4.15523 3.76028 4.15406 3.68009 4.18202C3.59989 4.20997 3.53296 4.26515 3.49182 4.33724L2.05121 6.74458C2.00634 6.81572 1.99018 6.90031 2.00581 6.98222C2.02144 7.06413 2.06778 7.13762 2.13596 7.18865L3.6492 8.35726C3.63718 8.58305 3.63718 8.80928 3.6492 9.03506C3.63676 9.26083 3.63676 9.48708 3.6492 9.71285L2.13596 10.8815C2.06778 10.9325 2.02144 11.006 2.00581 11.0879C1.99018 11.1698 2.00634 11.2544 2.05121 11.3255L3.49182 13.7329C3.53296 13.8048 3.60064 13.8592 3.68138 13.8851C3.76212 13.9111 3.85003 13.9068 3.92765 13.8731L5.7193 13.1836C6.09096 13.4589 6.49785 13.6867 6.92988 13.8614L7.20833 15.7078C7.2201 15.7894 7.26221 15.864 7.32681 15.9178C7.39142 15.9716 7.47412 16.0008 7.55941 16H10.4406C10.5259 16.0008 10.6086 15.9716 10.6732 15.9178C10.7378 15.864 10.7799 15.7894 10.7917 15.7078L11.058 13.8614C11.4896 13.6859 11.8964 13.4581 12.2686 13.1836L14.0603 13.8731C14.1385 13.9018 14.2247 13.9035 14.3041 13.878C14.3835 13.8524 14.4513 13.8012 14.4961 13.7329L15.9488 11.2087C15.9911 11.1369 16.0059 11.053 15.9903 10.9717C15.9748 10.8905 15.9301 10.8171 15.864 10.7646L14.3387 9.64274ZM9.02422 11.4891C8.52815 11.5031 8.03903 11.3739 7.61949 11.118C7.19994 10.8621 6.86903 10.4911 6.6691 10.0527C6.46916 9.6142 6.40929 9.12812 6.49716 8.65662C6.58502 8.18511 6.81664 7.74964 7.16234 7.40592C7.50804 7.0622 7.9521 6.82586 8.43773 6.72714C8.92336 6.62843 9.42845 6.67183 9.88838 6.85179C10.3483 7.03176 10.7422 7.3401 11.0195 7.73736C11.2969 8.13462 11.4452 8.60273 11.4454 9.0818C11.4457 9.70831 11.1929 10.3102 10.7408 10.7597C10.2887 11.2092 9.67295 11.4709 9.02422 11.4891Z"/>
</svg>
