<svg width="18" height="18" viewBox="0 0 18 18" fill="none" xmlns="http://www.w3.org/2000/svg">
<path fill="currentColor" d="M15.2222 1H2.77778C1.8 1 1 1.8 1 2.77778V15.2222C1 16.2 1.8 17 2.77778 17H15.2222C16.2 17 17 16.2 17 15.2222V2.77778C17 1.8 16.2 1 15.2222 1ZM10.3867 4.13778C10.6444 3.88 11.0711 3.88 11.3289 4.13778L12.1111 4.92L12.8933 4.13778C13.1511 3.88 13.5778 3.88 13.8356 4.13778C14.0933 4.39556 14.0933 4.82222 13.8356 5.08L13.0533 5.86222L13.8356 6.64444C14.0933 6.90222 14.0933 7.32889 13.8356 7.58667C13.5778 7.84444 13.1511 7.84444 12.8933 7.58667L12.1111 6.81333L11.3289 7.59556C11.0711 7.85333 10.6444 7.85333 10.3867 7.59556C10.1289 7.33778 10.1289 6.91111 10.3867 6.65333L11.1689 5.87111L10.3867 5.08889C10.12 4.82222 10.12 4.39556 10.3867 4.13778ZM4.55556 5.19556H7.66667C8.03111 5.19556 8.33333 5.49778 8.33333 5.86222C8.33333 6.22667 8.03111 6.52889 7.66667 6.52889H4.55556C4.19111 6.52889 3.88889 6.22667 3.88889 5.86222C3.88889 5.49778 4.19111 5.19556 4.55556 5.19556ZM7.88889 12.5556H6.77778V13.6667C6.77778 14.0311 6.47556 14.3333 6.11111 14.3333C5.74667 14.3333 5.44444 14.0311 5.44444 13.6667V12.5556H4.33333C3.96889 12.5556 3.66667 12.2533 3.66667 11.8889C3.66667 11.5244 3.96889 11.2222 4.33333 11.2222H5.44444V10.1111C5.44444 9.74667 5.74667 9.44444 6.11111 9.44444C6.47556 9.44444 6.77778 9.74667 6.77778 10.1111V11.2222H7.88889C8.25333 11.2222 8.55556 11.5244 8.55556 11.8889C8.55556 12.2533 8.25333 12.5556 7.88889 12.5556ZM13.6667 13.6667H10.5556C10.1911 13.6667 9.88889 13.3644 9.88889 13C9.88889 12.6356 10.1911 12.3333 10.5556 12.3333H13.6667C14.0311 12.3333 14.3333 12.6356 14.3333 13C14.3333 13.3644 14.0311 13.6667 13.6667 13.6667ZM13.6667 11.4444H10.5556C10.1911 11.4444 9.88889 11.1422 9.88889 10.7778C9.88889 10.4133 10.1911 10.1111 10.5556 10.1111H13.6667C14.0311 10.1111 14.3333 10.4133 14.3333 10.7778C14.3333 11.1422 14.0311 11.4444 13.6667 11.4444Z"/>
</svg>
