<svg width="24" height="24" viewBox="0 0 24 24" fill="none" xmlns="http://www.w3.org/2000/svg">
<path d="M19.73 5.3L17.43 3L16.7 2.27C16.5575 2.1301 16.3764 2.03606 16.18 2H5C4.73478 2 4.48043 2.10536 4.29289 2.29289C4.10536 2.48043 4 2.73478 4 3V21C4 21.2652 4.10536 21.5196 4.29289 21.7071C4.48043 21.8946 4.73478 22 5 22H19C19.2652 22 19.5196 21.8946 19.7071 21.7071C19.8946 21.5196 20 21.2652 20 21V5.8C19.9572 5.61187 19.8638 5.43899 19.73 5.3ZM19 21H5V3H15V6C15 6.26522 15.1054 6.51957 15.2929 6.70711C15.4804 6.89464 15.7348 7 16 7H19V21ZM16 6V3L19 6H16Z" fill="black"/>
<path d="M9 11.27C8.2 11.27 7.88 10.86 7.83 10.34H7C7.02012 10.7393 7.17411 11.1203 7.43716 11.4214C7.70021 11.7226 8.05699 11.9264 8.45 12V13H9.62V12.05C10.0044 12.0032 10.3579 11.816 10.6126 11.5243C10.8673 11.2327 11.0053 10.8572 11 10.47C11 9.21 10 8.78 9.15 8.47C8.3 8.16 8 8 8 7.56C8 7.12 8.4 6.74 9.06 6.74C9.18987 6.71994 9.3226 6.72955 9.44822 6.76813C9.57384 6.8067 9.68909 6.87323 9.78532 6.96272C9.88155 7.05221 9.95625 7.16234 10.0038 7.28484C10.0514 7.40734 10.0706 7.53902 10.06 7.67H10.93C10.9282 7.28567 10.7984 6.91289 10.5612 6.6105C10.324 6.3081 9.99284 6.0933 9.62 6V5H8.45V6C8.07487 6.06388 7.73308 6.2547 7.48186 6.54052C7.23063 6.82633 7.08523 7.18978 7.07 7.57C7.07 8.57 7.82 9.11 8.92 9.4C10.02 9.69 10.1 10.06 10.1 10.48C10.1 10.9 9.9 11.27 9 11.27Z" fill="black"/>
<path d="M17 15H7V16H17V15Z" fill="black"/>
<path d="M17 12H13V13H17V12Z" fill="black"/>
<path d="M17 9H13V10H17V9Z" fill="black"/>
<path d="M17 18H7V19H17V18Z" fill="black"/>
</svg>
