<svg width="24" height="24" viewBox="0 0 24 24" fill="none" xmlns="http://www.w3.org/2000/svg">
<g clip-path="url(#clip0_1937_112411)">
<g clip-path="url(#clip1_1937_112411)">
<path opacity="0.87" d="M11.9699 4.89962L9.14146 7.72805L10.5557 9.14226L13.3841 6.31384C14.5508 5.14711 16.46 5.14711 17.6267 6.31384C18.7935 7.48056 18.7935 9.38975 17.6267 10.5565L14.7983 13.3849L16.2125 14.7991L19.041 11.9707C20.9926 10.0191 20.9926 6.85124 19.041 4.89962C17.0893 2.94801 13.9215 2.94801 11.9699 4.89962ZM13.3841 14.7991L10.5557 17.6275C9.38894 18.7943 7.47975 18.7943 6.31303 17.6275C5.1463 16.4608 5.1463 14.5516 6.31303 13.3849L9.14146 10.5565L7.72724 9.14226L4.89882 11.9707C2.9472 13.9223 2.9472 17.0901 4.89882 19.0418C6.85043 20.9934 10.0183 20.9934 11.9699 19.0418L14.7983 16.2133L13.3841 14.7991ZM8.43435 14.092L14.0912 8.43516L15.5054 9.84937L9.84856 15.5062L8.43435 14.092Z" fill="#101043"/>
</g>
</g>
<defs>
<clipPath id="clip0_1937_112411">
<rect width="24" height="24" fill="white"/>
</clipPath>
<clipPath id="clip1_1937_112411">
<rect width="24" height="24" fill="white" transform="translate(-5 11.9707) rotate(-45)"/>
</clipPath>
</defs>
</svg>
