<svg width="128px" height="128px" viewBox="0 0 128 128" version="1.1" xmlns="http://www.w3.org/2000/svg">
<path fill="#191966" stroke="none" d="M15.0672017,56.3572862 C14.585275,53.5570924 16.7566506,51 19.6164006,51 L94.3837412,51 C97.2286418,51 99.3961523,53.5322206 98.9389052,56.3216405 L87.8177515,124.152327 C87.4539614,126.371301 85.5250548,128 83.2625874,128 L31.2904506,128 C29.0417134,128 27.1203064,126.389639 26.7412863,124.187858 L15.0672017,56.3572862 Z"/>
<line fill="none" stroke="#FFFFFF" stroke-width="4" stroke-linecap="round" x1="57.5" y1="110" x2="57.5" y2="69"/>
<line fill="none" stroke="#FFFFFF" stroke-width="3.99999996" stroke-linecap="round" x1="60.3959976" y1="89.7514802" x2="103.418819" y2="89.7514802" transform="translate(81.907408, 89.751480) rotate(-80.375012) translate(-81.907408, -89.751480)"/>
<line fill="none" stroke="#FFFFFF" stroke-width="3.99999964" stroke-linecap="round" x1="13.0740183" y1="90.5584001" x2="56.1043111" y2="90.5584001" transform="translate(34.589165, 90.558400) rotate(-99.177251) translate(-34.589165, -90.558400)"/>
<path fill="none" stroke="#191966" stroke-width="3.99999953" transform="translate(50.010713, 13.460197) rotate(-19.176924) translate(-50.010713, -13.460197)" d="M41.6313135,9.59981186 L58.3901118,9.59981186 C59.4946813,9.59981186 60.3901118,10.4952424 60.3901118,11.5998119 L60.3901118,15.3205821 C60.3901118,16.4251516 59.4946813,17.3205821 58.3901118,17.3205821 L41.6313135,17.3205821 C40.526744,17.3205821 39.6313135,16.4251516 39.6313135,15.3205821 L39.6313135,11.5998119 C39.6313135,10.4952424 40.526744,9.59981186 41.6313135,9.59981186 Z"/>
<path fill="#191966" stroke="none" d="M11.2524291,33.8397026 C10.4311932,31.4473465 11.6796849,28.7691121 14.0410218,27.8577819 L85.4362061,0.304871424 C87.7975889,-0.606424372 90.3776012,0.594264539 91.1988372,2.9866779 L94,11.1470096 L14.0535804,42 L11.2524291,33.8397026 Z"/>
<ellipse fill="#FFFFFF" stroke="none" cx="83" cy="41.5" rx="17" ry="17.5"/>
<path fill="#7800EF" stroke="none" d="M82.9999426,24 C73.6160129,24 66,31.8400528 66,41.5 C66,51.160061 73.6160129,59 82.9999426,59 C92.3839871,59 100,51.160061 100,41.5 C100,31.8400528 92.3839871,24 82.9999426,24 Z M85.3970363,52.1575611 L85.3970363,55.5000455 L80.8580323,55.5000455 L80.8580323,52.1225172 C77.9510309,51.4925231 75.4859801,49.5674969 75.2989834,46.1725604 L78.6310608,46.1725604 C78.8009535,48.0100906 80.0249842,49.4450708 83.1359715,49.4450708 C86.4679341,49.4450708 87.2160358,47.7300806 87.2160358,46.6624926 C87.2160358,45.2099904 86.4679341,43.8450981 82.6770317,42.917572 C78.4610533,41.867506 75.5710413,40.0825418 75.5710413,36.4950913 C75.5710413,33.485069 77.9340417,31.5249989 80.8580323,30.8775966 L80.8580323,27.5000683 L85.3970363,27.5000683 L85.3970363,30.9125267 C88.5589914,31.6999909 90.1400264,34.1675151 90.241962,36.8450753 L86.9099994,36.8450753 C86.8249383,34.9025272 85.8219976,33.572565 83.1359715,33.572565 C80.5859744,33.572565 79.056022,34.7625791 79.056022,36.4425254 C79.056022,37.9125495 80.1610131,38.8750057 83.5950261,39.7850098 C87.0290391,40.6950139 90.7010166,42.2174901 90.7010166,46.6275625 C90.6840273,49.8300988 88.3550055,51.5800191 85.3970363,52.1575611 Z"/>
<line fill="none" stroke="#7800EF" stroke-width="3.00007942" stroke-linecap="round" x1="103.524702" y1="16.4855813" x2="111.049617" y2="16.4855813" transform="translate(107.287160, 16.485581) rotate(-43.962195) translate(-107.287160, -16.485581)"/>
<line fill="none" stroke="#7800EF" stroke-width="2.9997774" stroke-linecap="round" x1="108.946707" y1="29.2066182" x2="116.307031" y2="29.2066182" transform="translate(112.626869, 29.206618) rotate(-17.490694) translate(-112.626869, -29.206618)"/>
<line fill="none" stroke="#7800EF" stroke-width="3.0000896" stroke-linecap="round" x1="110.484039" y1="43.2855849" x2="117.808388" y2="43.2855849" transform="translate(114.146213, 43.285585) rotate(11.603365) translate(-114.146213, -43.285585)"/>
</svg>