<svg width="1em" height="1em" color="#17171A" viewBox="0 0 24 24" version="1.1" xmlns="http://www.w3.org/2000/svg">
<path fill="currentColor" stroke="none" d="M3.17436313,12.4213594 L1.44724913,12.5444594 C1.38445313,12.5437594 1.32249713,12.5296594 1.26532213,12.5031594 C1.20814713,12.4766594 1.15700313,12.4382594 1.11514913,12.3904594 C1.07329473,12.3426594 1.04164543,12.2865594 1.02221203,12.2255594 C1.00277861,12.1646594 0.995986917,12.1001594 1.00227125,12.0364594 C0.990914427,11.9037594 1.02880143,11.7715594 1.10842313,11.6660594 C1.18804413,11.5605594 1.30358913,11.4894594 1.43216513,11.4667594 L3.15928313,11.3359594 C3.22208313,11.3366594 3.28403313,11.3507594 3.34121313,11.3772594 C3.39838313,11.4037594 3.44953313,11.4421594 3.49138313,11.4899594 C3.53323313,11.5377594 3.56489313,11.5938594 3.58432313,11.6548594 C3.60375313,11.7157594 3.61054313,11.7802594 3.60426313,11.8439594 C3.61583313,11.9775594 3.57819313,12.1107594 3.49870313,12.2174594 C3.41920313,12.3242594 3.30356313,12.3969594 3.17436313,12.4213594 Z"/>
<path fill="currentColor" stroke="none" d="M4.19307313,7.0712894 L2.76010313,6.0782794 C2.71440313,6.0350494 2.67795313,5.9826494 2.65302313,5.9243694 C2.62810313,5.8660894 2.61523313,5.8031794 2.61523313,5.7395794 C2.61523313,5.6759894 2.62810313,5.6130794 2.65302313,5.5547994 C2.67795313,5.4965194 2.71440313,5.4441194 2.76010313,5.4008894 C2.83269313,5.2898494 2.94308313,5.2102694 3.06988313,5.1775594 C3.19667313,5.1448494 3.33085313,5.1613394 3.44642313,5.2238394 L4.87939313,6.2168394 C4.92739313,6.2581494 4.96674313,6.3088994 4.99511313,6.3660694 C5.02347313,6.4232394 5.04027313,6.4856494 5.04449313,6.5495894 C5.04872313,6.6135194 5.04028313,6.6776694 5.01969313,6.7382094 C4.99910313,6.7987394 4.96678313,6.8544294 4.92465313,6.9019394 C4.84747313,7.0207994 4.72837313,7.1047194 4.59212313,7.1362594 C4.45586313,7.1678094 4.31294313,7.1445294 4.19307313,7.0712894 Z"/>
<path fill="currentColor" stroke="none" d="M8.14436313,3.2611094 L7.39016313,1.6599924 C7.36911313,1.5999354 7.36027313,1.5361314 7.36418313,1.4724724 C7.36809313,1.4088144 7.38466313,1.3466354 7.41289313,1.2897314 C7.44112313,1.2328264 7.48042313,1.1823884 7.52837313,1.1414934 C7.57633313,1.1005992 7.63195313,1.0701061 7.69184313,1.0518745 C7.80950313,0.995451704 7.94326313,0.984645304 8.06816313,1.0214715 C8.19305313,1.0582977 8.30056313,1.1402414 8.37062313,1.2520144 L9.12482313,2.8531294 C9.14586313,2.9131894 9.15470313,2.9769994 9.15080313,3.0406494 C9.14689313,3.1043094 9.13031313,3.1664894 9.10208313,3.2233994 C9.07385313,3.2802994 9.03456313,3.3307394 8.98660313,3.3716294 C8.93864313,3.4125294 8.88302313,3.4430194 8.82314313,3.4612494 C8.70521313,3.5160294 8.57197313,3.5259594 8.44749313,3.4892594 C8.32302313,3.4525594 8.21550313,3.3716394 8.14436313,3.2611094 Z"/>
<path fill="currentColor" stroke="none" d="M20.8227531,12.4213594 L22.5499531,12.5444594 C22.6126531,12.5437594 22.6746531,12.5296594 22.7318531,12.5031594 C22.7890531,12.4766594 22.8401531,12.4382594 22.8820531,12.3904594 C22.9238531,12.3426594 22.9555531,12.2865594 22.9749531,12.2255594 C22.9943531,12.1646594 23.0011531,12.1001594 22.9948531,12.0364594 C23.0062531,11.9037594 22.9683531,11.7715594 22.8887531,11.6660594 C22.8091531,11.5605594 22.6935531,11.4894594 22.5649531,11.4667594 L20.8378531,11.3359594 C20.7750531,11.3366594 20.7131531,11.3507594 20.6559531,11.3772594 C20.5987531,11.4037594 20.5476531,11.4421594 20.5057531,11.4899594 C20.4639531,11.5377594 20.4322531,11.5938594 20.4128531,11.6548594 C20.3934531,11.7157594 20.3866531,11.7802594 20.3928531,11.8439594 C20.3813531,11.9775594 20.4189531,12.1107594 20.4984531,12.2174594 C20.5779531,12.3242594 20.6935531,12.3969594 20.8227531,12.4213594 Z"/>
<path fill="currentColor" stroke="none" d="M19.8037531,7.0717494 L21.2367531,6.0787494 C21.2824531,6.0355194 21.3188531,5.9831194 21.3438531,5.9248394 C21.3687531,5.8665494 21.3816531,5.8036494 21.3816531,5.7400494 C21.3816531,5.6764594 21.3687531,5.6135494 21.3438531,5.5552694 C21.3188531,5.4969894 21.2824531,5.4445894 21.2367531,5.4013494 C21.1653531,5.2889294 21.0549531,5.2082094 20.9276531,5.1753694 C20.8003531,5.1425394 20.6656531,5.1600194 20.5504531,5.2243094 L19.1551531,6.2173094 C19.1092531,6.2612294 19.0726531,6.3142794 19.0476531,6.3731994 C19.0226531,6.4321194 19.0097531,6.4956494 19.0097531,6.5598594 C19.0097531,6.6240694 19.0226531,6.6875894 19.0476531,6.7465094 C19.0726531,6.8054294 19.1092531,6.8584894 19.1551531,6.9023994 C19.2274531,7.0028094 19.3315531,7.0745594 19.4497531,7.1054294 C19.5680531,7.1363094 19.6931531,7.1244094 19.8037531,7.0717494 Z"/>
<path fill="currentColor" stroke="none" d="M15.8527531,3.2617494 L16.6069531,1.6606344 C16.6280531,1.6005774 16.6368531,1.5367734 16.6329531,1.4731154 C16.6290531,1.4094564 16.6124531,1.3472784 16.5842531,1.2903734 C16.5560531,1.2334684 16.5167531,1.1830304 16.4687531,1.1421364 C16.4207531,1.1012418 16.3651531,1.0707487 16.3052531,1.0525171 C16.1865531,0.995613304 16.0515531,0.984532904 15.9253531,1.0213251 C15.7992531,1.0581174 15.6903531,1.1402934 15.6189531,1.2526574 L14.8647531,2.8537794 C14.8437531,2.9138294 14.8348531,2.9776394 14.8387531,3.0412994 C14.8426531,3.1049594 14.8592531,3.1671294 14.8874531,3.2240394 C14.9157531,3.2809394 14.9550531,3.3313794 15.0029531,3.3722794 C15.0509531,3.4131694 15.1065531,3.4436594 15.1664531,3.4618994 C15.2846531,3.5222594 15.4206531,3.5351994 15.5477531,3.4981394 C15.6748531,3.4610894 15.7836531,3.3767394 15.8527531,3.2617494 Z"/>
<path fill="currentColor" stroke="none" d="M10.3308831,17.6191594 L13.6719531,17.6191594 C13.9240531,17.6191594 14.1657531,17.7213594 14.3439531,17.9032594 C14.5221531,18.0851594 14.6222531,18.3318594 14.6222531,18.5890594 L14.6222531,20.0669594 C14.6222531,20.2792594 14.5813531,20.4894594 14.5017531,20.6856594 C14.4221531,20.8817594 14.3054531,21.0599594 14.1583531,21.2100594 C14.0113531,21.3601594 13.8367531,21.4792594 13.6445531,21.5604594 C13.4523531,21.6417594 13.2464531,21.6835594 13.0384531,21.6835594 L10.9568631,21.6835594 C10.5368131,21.6835594 10.1339631,21.5132594 9.83693313,21.2100594 C9.53991313,20.9068594 9.37304313,20.4957594 9.37304313,20.0669594 L9.37304313,18.5890594 C9.37304313,18.3318594 9.47316313,18.0851594 9.65138313,17.9032594 C9.82959313,17.7213594 10.0713031,17.6191594 10.3233331,17.6191594 L10.3308831,17.6191594 Z"/>
<path fill="currentColor" stroke="none" d="M10.8062731,20.0902594 L13.2197531,20.0902594 C13.3897531,20.0902594 13.5527531,20.1591594 13.6730531,20.2818594 C13.7932531,20.4045594 13.8607531,20.5710594 13.8607531,20.7445594 L13.8607531,21.7914594 C13.8607531,21.9772594 13.7884531,22.1553594 13.6597531,22.2867594 C13.5310531,22.4181594 13.3564531,22.4919594 13.1744531,22.4919594 L11.0023531,22.4919594 C10.7743331,22.4919594 10.5556431,22.3994594 10.3944031,22.2349594 C10.2331631,22.0703594 10.142583,21.8471594 10.142583,21.6143594 L10.142583,20.7445594 C10.1425231,20.6566594 10.1598231,20.5696594 10.1934431,20.4887594 C10.2270731,20.4077594 10.2763231,20.3345594 10.3382731,20.2735594 C10.4002131,20.2124594 10.4735831,20.1647594 10.5539931,20.1332594 C10.6344031,20.1017594 10.7202031,20.0871594 10.8062731,20.0902594 Z"/>
<path fill="currentColor" stroke="none" d="M18.5514531,11.5899594 C18.5813531,10.6929694 18.4339531,9.7989894 18.1182531,8.9612894 C17.8024531,8.1235994 17.3247531,7.3593194 16.7135531,6.7139894 C16.1023531,6.0686494 15.3701531,5.5554494 14.5606531,5.2049494 C13.7510531,4.8544594 12.8806531,4.6738294 12.0012531,4.6738294 C11.1218531,4.6738294 10.2514631,4.8544594 9.44189313,5.2049494 C8.63232313,5.5554494 7.90013313,6.0686494 7.28894313,6.7139894 C6.67775313,7.3593194 6.20006313,8.1235994 5.88431313,8.9612894 C5.56856313,9.7989894 5.42121313,10.6929694 5.45103313,11.5899594 C5.44363313,12.7245594 5.70603313,13.8439594 6.21571313,14.8521594 C6.72540313,15.8603594 7.46716313,16.7273594 8.37733313,17.3786594 C8.37733313,17.3786594 8.67147313,17.5941594 9.01086313,17.8713594 C9.55388313,18.3177594 9.65947313,18.5333594 9.89327313,18.7180594 C10.3080831,19.0567594 10.8737331,19.0567594 11.9974531,19.0490594 C13.1212531,19.0413594 13.7095531,19.0490594 14.1017531,18.7180594 C14.3430531,18.5256594 14.5165531,18.2561594 15.1274531,17.7558594 C15.3461531,17.5787594 15.5195531,17.4556594 15.5723531,17.4171594 C16.4800531,16.7505594 17.2222531,15.8762594 17.7395531,14.8644594 C18.2568531,13.8525594 18.5348531,12.7311594 18.5514531,11.5899594 Z"/>
<path stroke="#FFFFFF" stroke-width="2" stroke-linecap="round" fill="none" d="M11.4238531,7.0947294 C10.7927031,7.1848094 10.2003331,7.4584694 9.71752313,7.8829994 C9.23470313,8.3075294 8.88186313,8.8649694 8.70117313,9.4887094"/>
<path fill="currentColor" stroke="none" d="M7.64602313,12.4288594 C8.10421313,12.4288594 8.47564313,12.0497594 8.47564313,11.5820594 C8.47564313,11.1144594 8.10421313,10.7353494 7.64602313,10.7353494 C7.18784313,10.7353494 6.81640313,11.1144594 6.81640313,11.5820594 C6.81640313,12.0497594 7.18784313,12.4288594 7.64602313,12.4288594 Z"/>
</svg>