<svg width="1em" height="1em" viewBox="0 0 24 24" version="1.1" xmlns="http://www.w3.org/2000/svg">
<circle fill="#FA7DC816" stroke="none" cx="12" cy="12" r="12"/>
<path fill="currentColor" stroke="none" d="M12.7999682,14.1471497 L10.7255661,14.1471497 C10.7317735,13.6054545 10.7813856,13.1512833 10.8744022,12.7843381 C10.9674188,12.4115778 11.1224623,12.0737079 11.339517,11.7708774 C11.5627632,11.468047 11.8573396,11.1476222 12.2232303,10.8097523 C12.5085035,10.5535915 12.7658669,10.311834 12.9953206,10.0846888 C13.2247743,9.85171367 13.4077117,9.60709346 13.5441488,9.35081331 C13.6805858,9.08871809 13.7488043,8.78876535 13.7488043,8.45095507 C13.7488043,8.08400985 13.6836816,7.77241207 13.553452,7.51613192 C13.4232224,7.25986668 13.2309658,7.06474903 12.9767141,6.93077899 C12.7286539,6.79682385 12.4185827,6.72984629 12.0464845,6.72984629 C11.7364132,6.72984629 11.4449326,6.78808635 11.1720744,6.9045814 C10.8992161,7.01523156 10.6790498,7.18996667 10.5116072,7.42877182 C10.3441805,7.661747 10.2542438,7.97043724 10.2418448,8.35484256 L8,8.35484256 C8.01241492,7.62098193 8.19844814,7.00358653 8.55814729,6.50270108 C8.91783056,6.00180072 9.40155186,5.62611799 10.0092953,5.37568272 C10.6170388,5.12523255 11.2961124,5 12.0464845,5 C12.87749,5 13.5875533,5.13397005 14.1767062,5.40188032 C14.7658431,5.66399044 15.2154472,6.04839575 15.5254708,6.55511117 C15.8418765,7.05601153 16,7.661747 16,8.37231756 C16,8.88486295 15.8914092,9.35081331 15.6743863,9.77016863 C15.4573634,10.183694 15.1751384,10.5710366 14.8278542,10.9321668 C14.4805699,11.2874819 14.1053918,11.6426479 13.7022881,11.997963 C13.3550039,12.2949784 13.1193427,12.6182361 12.9953206,12.9677362 C12.8712826,13.3114211 12.8061757,13.7046087 12.7999682,14.1471497 Z M10.539517,16.8730711 C10.539517,16.5584614 10.6542518,16.2935034 10.8837054,16.0778989 C11.1131591,15.8566284 11.426342,15.7459931 11.8232383,15.7459931 C12.2201345,15.7459931 12.5333016,15.8566284 12.7627553,16.0778989 C12.9922089,16.2935034 13.1069437,16.5584614 13.1069437,16.8730711 C13.1069437,17.1875317 12.9922089,17.4554718 12.7627553,17.6767423 C12.5333016,17.8921977 12.2201345,18 11.8232383,18 C11.426342,18 11.1131591,17.8921977 10.8837054,17.6767423 C10.6542518,17.4554718 10.539517,17.1875317 10.539517,16.8730711 Z"/>
</svg>