<svg width="24px" height="24px" viewBox="0 0 24 24" version="1.1" xmlns="http://www.w3.org/2000/svg">
<circle fill="#F60F0F" fill-opacity="0.1" stroke="none" cx="12" cy="12" r="12"/>
<path fill="#F60F0F" stroke="none" d="M11,16.1011254 C11,16.3394936 11.1053481,16.5681407 11.2928889,16.7367296 C11.4804296,16.9053185 11.7347852,17 12,17 C12.2652148,17 12.5195704,16.9053185 12.7071111,16.7367296 C12.894637,16.5681407 13,16.3394936 13,16.1011254 C13,15.8627572 12.894637,15.6341101 12.7071111,15.4655212 C12.5195704,15.2969322 12.2652148,15.2022508 12,15.2022508 C11.7347852,15.2022508 11.4804296,15.2969322 11.2928889,15.4655212 C11.1053481,15.6341101 11,15.8627572 11,16.1011254 Z M11.5,13.7415463 L12.5,13.7415463 C12.5687556,13.7415463 12.6249926,13.6909429 12.6249926,13.6291536 L12.6249926,7.11235267 C12.6249926,7.05055004 12.5687556,7 12.5,7 L11.5,7 C11.4312444,7 11.3749926,7.05055004 11.3749926,7.11235267 L11.3749926,13.6291536 C11.3749926,13.6909429 11.4312444,13.7415463 11.5,13.7415463 Z"/>
</svg>